<?xml version="1.0" encoding="UTF-8" standalone="no"?>
<!-- Created with Inkscape (http://www.inkscape.org/) -->

<svg
   width="1200"
   height="630"
   viewBox="0 0 317.49999 166.6875"
   version="1.1"
   id="svg1"
   inkscape:export-filename="thumb.png"
   inkscape:export-xdpi="96"
   inkscape:export-ydpi="96"
   inkscape:version="1.4.2 (ebf0e940d0, 2025-05-08)"
   sodipodi:docname="thumb.svg"
   xmlns:inkscape="http://www.inkscape.org/namespaces/inkscape"
   xmlns:sodipodi="http://sodipodi.sourceforge.net/DTD/sodipodi-0.dtd"
   xmlns="http://www.w3.org/2000/svg"
   xmlns:svg="http://www.w3.org/2000/svg">
  <sodipodi:namedview
     id="namedview1"
     pagecolor="#ffffff"
     bordercolor="#000000"
     borderopacity="0.25"
     inkscape:showpageshadow="2"
     inkscape:pageopacity="0.0"
     inkscape:pagecheckerboard="0"
     inkscape:deskcolor="#d1d1d1"
     inkscape:document-units="mm"
     inkscape:zoom="1"
     inkscape:cx="681.5"
     inkscape:cy="385.5"
     inkscape:window-width="2560"
     inkscape:window-height="1381"
     inkscape:window-x="0"
     inkscape:window-y="0"
     inkscape:window-maximized="1"
     inkscape:current-layer="layer1" />
  <defs
     id="defs1" />
  <g
     inkscape:label="Layer 1"
     inkscape:groupmode="layer"
     id="layer1">
    <rect
       style="fill:#f5f5f5;fill-opacity:1;stroke-width:0.264164"
       id="rect5"
       width="317.52518"
       height="166.6875"
       x="0"
       y="0.26458332" />
    <path
       d="m 247.62047,76.07804 c 6.47071,-4.598339 12.00679,-5.835155 16.47431,-5.187148 4.7603,0.69162 8.47547,3.511064 11.03478,7.343013 4.36002,6.522101 5.16529,15.992937 2.51097,21.619361 -1.08104,2.294504 -2.70726,4.018884 -4.77591,4.965964 -2.03903,0.93618 -4.56872,1.15582 -7.59537,0.15578 a 2.9284818,2.9284818 0 0 1 -1.46731,-1.08105 L 246.932,80.154557 c -0.45038,-0.630868 -0.6293,-1.414396 -0.5016,-2.180786 a 2.9284818,2.9284818 0 0 1 1.18854,-1.894165 z m 5.8414,3.171486 14.50534,20.412141 c 0.95175,0.200936 1.76957,0.160431 2.46116,-0.15578 1.04836,-0.481352 1.71505,-1.520322 2.18239,-2.766481 0.6293,-1.688554 0.84266,-3.752511 0.70095,-5.903696 -0.36914,-5.567231 -3.04531,-11.875926 -8.36956,-13.743615 -3.06868,-1.073258 -6.87258,-0.548292 -11.48181,2.157419 z"
       id="path1"
       style="fill:#0e813c;fill-opacity:1;stroke-width:1.5577" />
    <path
       d="m 246.6454,76.369336 c -2.5235,-7.526823 -2.10138,-13.184403 -0.18545,-17.268698 2.04216,-4.353783 5.81644,-7.092222 10.22786,-8.431849 7.50658,-2.280477 16.80294,-0.30373 21.41688,3.86778 1.88325,1.701012 3.06244,3.75562 3.36929,6.011176 0.30202,2.2244 -0.2196,4.707374 -2.05458,7.314972 -0.35854,0.509376 -0.87074,0.891008 -1.46113,1.088836 l -27.61029,9.260545 c -0.73681,0.244562 -1.54055,0.190045 -2.23373,-0.15419 -0.69318,-0.344235 -1.22281,-0.953315 -1.4689,-1.688548 z m 4.73075,-4.669995 23.74093,-7.964538 c 0.46746,-0.850503 0.66668,-1.646489 0.56401,-2.401975 -0.15602,-1.141799 -0.95647,-2.081096 -2.01413,-2.891099 -1.43305,-1.091951 -3.34592,-1.894165 -5.4473,-2.383289 -5.4317,-1.263297 -12.24664,-0.53116 -15.57702,4.025109 -1.91752,2.62317 -2.51879,6.419295 -1.26484,11.614232 z"
       id="path2"
       style="fill:#0e813c;fill-opacity:1;stroke-width:1.5577" />
    <path
       d="m 247.85726,79.196563 c -11.97717,0 -18.16746,-4.493974 -20.81713,-10.036279 -3.97369,-8.318134 0.2196,-19.87785 6.5626,-25.42016 3.0983,-2.705729 6.6654,-3.983044 10.00355,-3.373982 2.31009,0.422125 4.59216,1.724379 6.57197,4.305489 0.38974,0.510907 0.6028,1.137124 0.6028,1.778896 v 29.822227 a 2.9284818,2.9284818 0 0 1 -2.92379,2.923809 z m -2.92379,-5.955099 v -25.70833 c -3.37712,-3.414487 -7.70287,-0.176032 -10.50362,4.187106 -3.12007,4.858474 -4.69024,11.70458 -1.21186,16.419749 2.06082,2.792962 5.81644,4.652857 11.71701,5.103035 z"
       id="path3"
       style="fill:#0e813c;fill-opacity:1;stroke-width:1.5577" />
    <path
       d="m 247.44603,77.807094 c 9.49423,6.184082 11.985,13.078477 11.10178,19.02734 -1.31318,8.841536 -10.78086,16.139376 -18.7174,17.430716 -3.95809,0.64488 -7.51589,-0.17604 -9.86337,-2.43002 -1.61844,-1.55615 -2.75247,-3.82572 -2.93156,-7.01122 a 2.9284818,2.9284818 0 0 1 0.46746,-1.76021 L 243.4024,78.660717 c 0.88169,-1.35209 2.69171,-1.735282 4.04381,-0.853623 z m -0.80687,6.59843 -13.66732,20.982266 c 0.16191,0.95644 0.50161,1.70569 1.04837,2.23219 0.83024,0.79911 2.04215,1.03899 3.374,1.01563 1.80065,-0.0294 3.79918,-0.59193 5.74944,-1.51253 5.04231,-2.38329 9.92883,-7.188815 9.71229,-12.827703 -0.12481,-3.247809 -2.01101,-6.593755 -6.21837,-9.889853 z"
       id="path4"
       style="fill:#0e813c;fill-opacity:1;stroke-width:1.5577" />
    <path
       d="m 247.6797,77.922363 c -2.05464,7.665459 -5.53143,12.148524 -9.38672,14.495988 -4.10922,2.500112 -8.76679,2.697939 -13.18126,1.378565 -7.51595,-2.247767 -14.17511,-9.033121 -15.71413,-15.059875 -0.6293,-2.458053 -0.47806,-4.822649 0.51279,-6.871028 0.97666,-2.021898 2.78361,-3.802354 5.75415,-4.962839 0.57932,-0.22584 1.2181,-0.260164 1.81785,-0.101263 l 28.13055,7.537721 a 2.9284818,2.9284818 0 0 1 2.06859,3.582719 z m -6.5221,1.278874 -24.18648,-6.481601 c -0.86139,0.451739 -1.46579,1.006277 -1.7976,1.690109 -0.50337,1.038987 -0.35501,2.264899 0.0824,3.521967 0.58879,1.701012 1.73995,3.428499 3.22134,4.997109 3.83192,4.054699 9.91476,7.207492 15.2094,5.252575 3.04843,-1.126221 5.64511,-3.958122 7.47073,-8.981719 z"
       id="path5"
       style="fill:#0e813c;fill-opacity:1;stroke-width:1.5577" />
    <text
       xml:space="preserve"
       style="font-weight:bold;font-size:17.6449px;line-height:1.3;font-family:Inter;-inkscape-font-specification:'Inter Bold';text-align:center;letter-spacing:0px;writing-mode:lr-tb;direction:ltr;text-anchor:middle;fill:#0e813c;fill-opacity:1;stroke-width:1.20306"
       x="40.269753"
       y="67.055214"
       id="text1"><tspan
         sodipodi:role="line"
         id="tspan1"
         style="line-height:1.3;text-align:start;letter-spacing:0px;text-anchor:start;fill:#333333;stroke-width:1.20306"
         x="40.269753"
         y="67.055214">$1 million in funding</tspan><tspan
         sodipodi:role="line"
         style="line-height:1.3;text-align:start;letter-spacing:0px;text-anchor:start;fill:#333333;stroke-width:1.20306"
         x="40.269753"
         y="89.993584"
         id="tspan3">for FOSS projects</tspan><tspan
         sodipodi:role="line"
         style="font-size:7.05556px;line-height:1.3;text-align:start;letter-spacing:0px;text-anchor:start;fill:#333333;stroke-width:1.20306"
         x="40.269753"
         y="112.93195"
         id="tspan4">FLOSS<tspan
   style="fill:#0e813c;fill-opacity:1"
   id="tspan5">/fund</tspan></tspan></text>
  </g>
</svg>
