<svg xmlns="http://www.w3.org/2000/svg" width="46.565" height="47.675" fill="#0e813c" fill-rule="evenodd" xmlns:v="https://vecta.io/nano"><path d="M24.78 23.022c4.154-2.952 7.708-3.746 10.576-3.33 3.056.444 5.441 2.254 7.084 4.714 2.799 4.187 3.316 10.267 1.612 13.879-.694 1.473-1.738 2.58-3.066 3.188-1.309.601-2.933.742-4.876.1a1.88 1.88 0 0 1-.942-.694L24.338 25.639c-.289-.405-.404-.908-.322-1.4a1.88 1.88 0 0 1 .763-1.216zm3.75 2.036l9.312 13.104c.611.129 1.136.103 1.58-.1.673-.309 1.101-.976 1.401-1.776.404-1.084.541-2.409.45-3.79-.237-3.574-1.955-7.624-5.373-8.823-1.97-.689-4.412-.352-7.371 1.385z"/><path d="M24.154 23.209c-1.62-4.832-1.349-8.464-.119-11.086 1.311-2.795 3.734-4.553 6.566-5.413 4.819-1.464 10.787-.195 13.749 2.483 1.209 1.092 1.966 2.411 2.163 3.859.194 1.428-.141 3.022-1.319 4.696-.23.327-.559.572-.938.699l-17.725 5.945c-.473.157-.989.122-1.434-.099s-.785-.612-.943-1.084zm3.037-2.998l15.241-5.113c.3-.546.428-1.057.362-1.542-.1-.733-.614-1.336-1.293-1.856-.92-.701-2.148-1.216-3.497-1.53-3.487-.811-7.862-.341-10 2.584-1.231 1.684-1.617 4.121-.812 7.456z"/><path d="M24.932 25.024c-7.689 0-11.663-2.885-13.364-6.443-2.551-5.34.141-12.761 4.213-16.319C17.77.525 20.06-.295 22.203.096c1.483.271 2.948 1.107 4.219 2.764.25.328.387.73.387 1.142v19.145a1.88 1.88 0 0 1-1.877 1.877zm-1.877-3.823V4.697c-2.168-2.192-4.945-.113-6.743 2.688-2.003 3.119-3.011 7.514-.778 10.541 1.323 1.793 3.734 2.987 7.522 3.276z"/><path d="M24.668 24.132c6.095 3.97 7.694 8.396 7.127 12.215-.843 5.676-6.921 10.361-12.016 11.19-2.541.414-4.825-.113-6.332-1.56-1.039-.999-1.767-2.456-1.882-4.501a1.88 1.88 0 0 1 .3-1.13L22.072 24.68c.566-.868 1.728-1.114 2.596-.548zm-.518 4.236l-8.774 13.47c.104.614.322 1.095.673 1.433.533.513 1.311.667 2.166.652 1.156-.019 2.439-.38 3.691-.971 3.237-1.53 6.374-4.615 6.235-8.235-.08-2.085-1.291-4.233-3.992-6.349z"/><path d="M24.818 24.206c-1.319 4.921-3.551 7.799-6.026 9.306-2.638 1.605-5.628 1.732-8.462.885C5.505 32.954 1.23 28.598.242 24.729c-.404-1.578-.307-3.096.329-4.411.627-1.298 1.787-2.441 3.694-3.186.372-.145.782-.167 1.167-.065l18.059 4.839a1.88 1.88 0 0 1 1.328 2.3zm-4.187.821L5.104 20.866c-.553.29-.941.646-1.154 1.085-.323.667-.228 1.454.053 2.261.378 1.092 1.117 2.201 2.068 3.208 2.46 2.603 6.365 4.627 9.764 3.372 1.957-.723 3.624-2.541 4.796-5.766z"/></svg>